<mxfile host="app.diagrams.net" modified="2021-04-28T06:36:24.114Z" agent="5.0 (Windows NT 10.0; Win64; x64) AppleWebKit/537.36 (KHTML, like Gecko) Chrome/90.0.4430.93 Safari/537.36" etag="4QBntXz6Lkot_-LVjfzj" version="14.6.6" type="github">
  <diagram id="zTjlQYOlsilWlxh8Xlqh" name="Page-1">
    <mxGraphModel dx="2485" dy="3102" grid="1" gridSize="10" guides="1" tooltips="1" connect="1" arrows="1" fold="1" page="1" pageScale="1" pageWidth="850" pageHeight="1100" math="0" shadow="0">
      <root>
        <mxCell id="0" />
        <mxCell id="1" parent="0" />
        <mxCell id="93AqYQxgSIACoRyakcor-8" value="EmployeeEmail" style="ellipse;whiteSpace=wrap;html=1;strokeWidth=1;" parent="1" vertex="1">
          <mxGeometry x="-185" y="-810" width="120" height="80" as="geometry" />
        </mxCell>
        <mxCell id="93AqYQxgSIACoRyakcor-9" value="EmployeeInfo" style="rounded=0;whiteSpace=wrap;html=1;" parent="1" vertex="1">
          <mxGeometry x="-35" y="-700" width="120" height="60" as="geometry" />
        </mxCell>
        <mxCell id="93AqYQxgSIACoRyakcor-10" value="" style="endArrow=none;html=1;exitX=0;exitY=0;exitDx=0;exitDy=0;entryX=1;entryY=0.5;entryDx=0;entryDy=0;" parent="1" source="93AqYQxgSIACoRyakcor-9" target="93AqYQxgSIACoRyakcor-8" edge="1">
          <mxGeometry width="50" height="50" relative="1" as="geometry">
            <mxPoint x="175" y="-550" as="sourcePoint" />
            <mxPoint x="65" y="-670" as="targetPoint" />
          </mxGeometry>
        </mxCell>
        <mxCell id="93AqYQxgSIACoRyakcor-11" value="EmployeeName" style="ellipse;whiteSpace=wrap;html=1;" parent="1" vertex="1">
          <mxGeometry x="-5" y="-840" width="120" height="80" as="geometry" />
        </mxCell>
        <mxCell id="93AqYQxgSIACoRyakcor-12" value="Designation" style="ellipse;whiteSpace=wrap;html=1;" parent="1" vertex="1">
          <mxGeometry x="-5" y="-560" width="120" height="80" as="geometry" />
        </mxCell>
        <mxCell id="93AqYQxgSIACoRyakcor-13" value="" style="endArrow=none;html=1;exitX=0.75;exitY=0;exitDx=0;exitDy=0;entryX=0.5;entryY=1;entryDx=0;entryDy=0;" parent="1" source="93AqYQxgSIACoRyakcor-9" target="93AqYQxgSIACoRyakcor-11" edge="1">
          <mxGeometry width="50" height="50" relative="1" as="geometry">
            <mxPoint x="-25" y="-660" as="sourcePoint" />
            <mxPoint x="-79" y="-708" as="targetPoint" />
          </mxGeometry>
        </mxCell>
        <mxCell id="93AqYQxgSIACoRyakcor-14" value="" style="endArrow=none;html=1;entryX=0.5;entryY=0;entryDx=0;entryDy=0;exitX=0.75;exitY=1;exitDx=0;exitDy=0;" parent="1" target="93AqYQxgSIACoRyakcor-12" edge="1" source="93AqYQxgSIACoRyakcor-9">
          <mxGeometry width="50" height="50" relative="1" as="geometry">
            <mxPoint x="25" y="-640" as="sourcePoint" />
            <mxPoint x="35" y="-730" as="targetPoint" />
          </mxGeometry>
        </mxCell>
        <mxCell id="93AqYQxgSIACoRyakcor-15" value="DeviceId" style="ellipse;whiteSpace=wrap;html=1;strokeWidth=1;" parent="1" vertex="1">
          <mxGeometry x="365" y="-890" width="120" height="80" as="geometry" />
        </mxCell>
        <mxCell id="93AqYQxgSIACoRyakcor-16" value="DeviceInfo" style="rounded=0;whiteSpace=wrap;html=1;" parent="1" vertex="1">
          <mxGeometry x="460" y="-695" width="120" height="60" as="geometry" />
        </mxCell>
        <mxCell id="93AqYQxgSIACoRyakcor-17" value="" style="endArrow=none;html=1;exitX=0.25;exitY=0;exitDx=0;exitDy=0;" parent="1" source="93AqYQxgSIACoRyakcor-16" target="93AqYQxgSIACoRyakcor-15" edge="1">
          <mxGeometry width="50" height="50" relative="1" as="geometry">
            <mxPoint x="670" y="-545" as="sourcePoint" />
            <mxPoint x="560" y="-665" as="targetPoint" />
          </mxGeometry>
        </mxCell>
        <mxCell id="93AqYQxgSIACoRyakcor-18" value="DeviceName" style="ellipse;whiteSpace=wrap;html=1;" parent="1" vertex="1">
          <mxGeometry x="515" y="-920" width="120" height="80" as="geometry" />
        </mxCell>
        <mxCell id="93AqYQxgSIACoRyakcor-19" value="DeviceType" style="ellipse;whiteSpace=wrap;html=1;" parent="1" vertex="1">
          <mxGeometry x="695" y="-840" width="120" height="80" as="geometry" />
        </mxCell>
        <mxCell id="93AqYQxgSIACoRyakcor-20" value="" style="endArrow=none;html=1;entryX=0.5;entryY=1;entryDx=0;entryDy=0;exitX=0.558;exitY=0.017;exitDx=0;exitDy=0;exitPerimeter=0;" parent="1" source="93AqYQxgSIACoRyakcor-16" target="93AqYQxgSIACoRyakcor-18" edge="1">
          <mxGeometry width="50" height="50" relative="1" as="geometry">
            <mxPoint x="535" y="-698" as="sourcePoint" />
            <mxPoint x="625" y="-800" as="targetPoint" />
          </mxGeometry>
        </mxCell>
        <mxCell id="93AqYQxgSIACoRyakcor-21" value="" style="endArrow=none;html=1;entryX=0;entryY=0.5;entryDx=0;entryDy=0;exitX=0.842;exitY=0;exitDx=0;exitDy=0;exitPerimeter=0;" parent="1" source="93AqYQxgSIACoRyakcor-16" target="93AqYQxgSIACoRyakcor-19" edge="1">
          <mxGeometry width="50" height="50" relative="1" as="geometry">
            <mxPoint x="540" y="-705" as="sourcePoint" />
            <mxPoint x="530" y="-725" as="targetPoint" />
          </mxGeometry>
        </mxCell>
        <mxCell id="93AqYQxgSIACoRyakcor-22" value="&lt;u&gt;EmployeeId(FK)&lt;/u&gt;" style="ellipse;whiteSpace=wrap;html=1;" parent="1" vertex="1">
          <mxGeometry x="745" y="-710" width="180" height="80" as="geometry" />
        </mxCell>
        <mxCell id="93AqYQxgSIACoRyakcor-23" value="IsAssigned (bit)" style="ellipse;whiteSpace=wrap;html=1;" parent="1" vertex="1">
          <mxGeometry x="695" y="-560" width="120" height="80" as="geometry" />
        </mxCell>
        <mxCell id="93AqYQxgSIACoRyakcor-24" value="AssignedDate" style="ellipse;whiteSpace=wrap;html=1;" parent="1" vertex="1">
          <mxGeometry x="535" y="-510" width="120" height="80" as="geometry" />
        </mxCell>
        <mxCell id="93AqYQxgSIACoRyakcor-25" value="AssignedBy" style="ellipse;whiteSpace=wrap;html=1;" parent="1" vertex="1">
          <mxGeometry x="395" y="-540" width="120" height="80" as="geometry" />
        </mxCell>
        <mxCell id="93AqYQxgSIACoRyakcor-26" value="QRCode" style="ellipse;whiteSpace=wrap;html=1;" parent="1" vertex="1">
          <mxGeometry x="245" y="-610" width="120" height="80" as="geometry" />
        </mxCell>
        <mxCell id="93AqYQxgSIACoRyakcor-27" value="" style="endArrow=none;html=1;exitX=1;exitY=0.5;exitDx=0;exitDy=0;entryX=0;entryY=0.5;entryDx=0;entryDy=0;" parent="1" source="93AqYQxgSIACoRyakcor-16" target="93AqYQxgSIACoRyakcor-22" edge="1">
          <mxGeometry width="50" height="50" relative="1" as="geometry">
            <mxPoint x="640" y="-805" as="sourcePoint" />
            <mxPoint x="690" y="-855" as="targetPoint" />
          </mxGeometry>
        </mxCell>
        <mxCell id="93AqYQxgSIACoRyakcor-28" value="" style="endArrow=none;html=1;exitX=0.75;exitY=1;exitDx=0;exitDy=0;entryX=0;entryY=0.5;entryDx=0;entryDy=0;" parent="1" source="93AqYQxgSIACoRyakcor-16" target="93AqYQxgSIACoRyakcor-23" edge="1">
          <mxGeometry width="50" height="50" relative="1" as="geometry">
            <mxPoint x="640" y="-805" as="sourcePoint" />
            <mxPoint x="690" y="-855" as="targetPoint" />
          </mxGeometry>
        </mxCell>
        <mxCell id="93AqYQxgSIACoRyakcor-29" value="" style="endArrow=none;html=1;exitX=0.5;exitY=1;exitDx=0;exitDy=0;entryX=0.417;entryY=-0.037;entryDx=0;entryDy=0;entryPerimeter=0;" parent="1" source="93AqYQxgSIACoRyakcor-16" target="93AqYQxgSIACoRyakcor-24" edge="1">
          <mxGeometry width="50" height="50" relative="1" as="geometry">
            <mxPoint x="640" y="-805" as="sourcePoint" />
            <mxPoint x="690" y="-855" as="targetPoint" />
          </mxGeometry>
        </mxCell>
        <mxCell id="93AqYQxgSIACoRyakcor-30" value="" style="endArrow=none;html=1;exitX=0.25;exitY=1;exitDx=0;exitDy=0;entryX=0.5;entryY=0;entryDx=0;entryDy=0;" parent="1" source="93AqYQxgSIACoRyakcor-16" target="93AqYQxgSIACoRyakcor-25" edge="1">
          <mxGeometry width="50" height="50" relative="1" as="geometry">
            <mxPoint x="640" y="-805" as="sourcePoint" />
            <mxPoint x="690" y="-855" as="targetPoint" />
          </mxGeometry>
        </mxCell>
        <mxCell id="93AqYQxgSIACoRyakcor-31" value="" style="endArrow=none;html=1;exitX=0;exitY=1;exitDx=0;exitDy=0;entryX=1;entryY=0.5;entryDx=0;entryDy=0;" parent="1" source="93AqYQxgSIACoRyakcor-16" target="93AqYQxgSIACoRyakcor-26" edge="1">
          <mxGeometry width="50" height="50" relative="1" as="geometry">
            <mxPoint x="640" y="-805" as="sourcePoint" />
            <mxPoint x="690" y="-855" as="targetPoint" />
          </mxGeometry>
        </mxCell>
        <mxCell id="ZkA7pwCNV48dStx_yh2e-1" value="" style="edgeStyle=entityRelationEdgeStyle;endArrow=ERzeroToMany;startArrow=ERone;endFill=1;startFill=0;exitX=1;exitY=0.5;exitDx=0;exitDy=0;entryX=0;entryY=0.5;entryDx=0;entryDy=0;" parent="1" source="93AqYQxgSIACoRyakcor-9" target="93AqYQxgSIACoRyakcor-16" edge="1">
          <mxGeometry width="100" height="100" relative="1" as="geometry">
            <mxPoint x="175" y="-945" as="sourcePoint" />
            <mxPoint x="545" y="-600" as="targetPoint" />
          </mxGeometry>
        </mxCell>
        <mxCell id="ZkA7pwCNV48dStx_yh2e-11" value="&lt;font style=&quot;font-size: 30px&quot;&gt;IT Desk&lt;br&gt;ER Diagram&lt;br&gt;&lt;/font&gt;" style="text;html=1;strokeColor=none;fillColor=none;align=center;verticalAlign=middle;whiteSpace=wrap;rounded=0;" parent="1" vertex="1">
          <mxGeometry x="55" y="-1190" width="470" height="20" as="geometry" />
        </mxCell>
        <mxCell id="hUQsxeSYEGS46C2yoitD-1" value="&lt;u&gt;EmployeeId&lt;/u&gt;" style="ellipse;whiteSpace=wrap;html=1;strokeWidth=3;" vertex="1" parent="1">
          <mxGeometry x="-185" y="-590" width="120" height="80" as="geometry" />
        </mxCell>
        <mxCell id="hUQsxeSYEGS46C2yoitD-2" value="" style="endArrow=none;html=1;entryX=0;entryY=1;entryDx=0;entryDy=0;exitX=1;exitY=0.5;exitDx=0;exitDy=0;" edge="1" parent="1" source="hUQsxeSYEGS46C2yoitD-1" target="93AqYQxgSIACoRyakcor-9">
          <mxGeometry width="50" height="50" relative="1" as="geometry">
            <mxPoint x="-95" y="-605" as="sourcePoint" />
            <mxPoint x="-45" y="-660" as="targetPoint" />
          </mxGeometry>
        </mxCell>
        <mxCell id="hUQsxeSYEGS46C2yoitD-4" value="&lt;u&gt;Id&lt;/u&gt;" style="ellipse;whiteSpace=wrap;html=1;strokeWidth=3;" vertex="1" parent="1">
          <mxGeometry x="245" y="-800" width="120" height="80" as="geometry" />
        </mxCell>
        <mxCell id="hUQsxeSYEGS46C2yoitD-5" value="" style="endArrow=none;html=1;exitX=1;exitY=0.5;exitDx=0;exitDy=0;entryX=0;entryY=0;entryDx=0;entryDy=0;" edge="1" parent="1" source="hUQsxeSYEGS46C2yoitD-4" target="93AqYQxgSIACoRyakcor-16">
          <mxGeometry width="50" height="50" relative="1" as="geometry">
            <mxPoint x="325" y="-700" as="sourcePoint" />
            <mxPoint x="465" y="-700" as="targetPoint" />
          </mxGeometry>
        </mxCell>
        <mxCell id="hUQsxeSYEGS46C2yoitD-8" value="DeviceID" style="ellipse;whiteSpace=wrap;html=1;strokeWidth=1;" vertex="1" parent="1">
          <mxGeometry x="95" y="-1120" width="120" height="80" as="geometry" />
        </mxCell>
        <mxCell id="hUQsxeSYEGS46C2yoitD-9" value="AuditTrail" style="rounded=0;whiteSpace=wrap;html=1;" vertex="1" parent="1">
          <mxGeometry x="235" y="-1000" width="120" height="60" as="geometry" />
        </mxCell>
        <mxCell id="hUQsxeSYEGS46C2yoitD-10" value="" style="endArrow=none;html=1;exitX=0;exitY=0;exitDx=0;exitDy=0;entryX=1;entryY=1;entryDx=0;entryDy=0;" edge="1" parent="1" source="hUQsxeSYEGS46C2yoitD-9" target="hUQsxeSYEGS46C2yoitD-8">
          <mxGeometry width="50" height="50" relative="1" as="geometry">
            <mxPoint x="445" y="-850" as="sourcePoint" />
            <mxPoint x="335" y="-970" as="targetPoint" />
          </mxGeometry>
        </mxCell>
        <mxCell id="hUQsxeSYEGS46C2yoitD-11" value="&lt;u&gt;EmployeeEmail&lt;/u&gt;" style="ellipse;whiteSpace=wrap;html=1;" vertex="1" parent="1">
          <mxGeometry x="375" y="-1120" width="120" height="80" as="geometry" />
        </mxCell>
        <mxCell id="hUQsxeSYEGS46C2yoitD-12" value="Date" style="ellipse;whiteSpace=wrap;html=1;" vertex="1" parent="1">
          <mxGeometry x="415" y="-1010" width="120" height="80" as="geometry" />
        </mxCell>
        <mxCell id="hUQsxeSYEGS46C2yoitD-13" value="" style="endArrow=none;html=1;exitX=1;exitY=0;exitDx=0;exitDy=0;entryX=0;entryY=1;entryDx=0;entryDy=0;" edge="1" parent="1" source="hUQsxeSYEGS46C2yoitD-9" target="hUQsxeSYEGS46C2yoitD-11">
          <mxGeometry width="50" height="50" relative="1" as="geometry">
            <mxPoint x="245" y="-960" as="sourcePoint" />
            <mxPoint x="191" y="-1008" as="targetPoint" />
          </mxGeometry>
        </mxCell>
        <mxCell id="hUQsxeSYEGS46C2yoitD-14" value="" style="endArrow=none;html=1;exitX=1;exitY=0.5;exitDx=0;exitDy=0;entryX=0;entryY=0.5;entryDx=0;entryDy=0;" edge="1" parent="1" source="hUQsxeSYEGS46C2yoitD-9" target="hUQsxeSYEGS46C2yoitD-12">
          <mxGeometry width="50" height="50" relative="1" as="geometry">
            <mxPoint x="305" y="-990" as="sourcePoint" />
            <mxPoint x="305" y="-1030" as="targetPoint" />
          </mxGeometry>
        </mxCell>
        <mxCell id="hUQsxeSYEGS46C2yoitD-15" value="&lt;u&gt;ID&lt;/u&gt;" style="ellipse;whiteSpace=wrap;html=1;strokeWidth=3;" vertex="1" parent="1">
          <mxGeometry x="45" y="-1010" width="120" height="80" as="geometry" />
        </mxCell>
        <mxCell id="hUQsxeSYEGS46C2yoitD-16" value="" style="endArrow=none;html=1;exitX=0;exitY=0.5;exitDx=0;exitDy=0;entryX=1;entryY=0.5;entryDx=0;entryDy=0;" edge="1" parent="1" source="hUQsxeSYEGS46C2yoitD-9" target="hUQsxeSYEGS46C2yoitD-15">
          <mxGeometry width="50" height="50" relative="1" as="geometry">
            <mxPoint x="235" y="-900" as="sourcePoint" />
            <mxPoint x="180.9999999999891" y="-948.00000000001" as="targetPoint" />
          </mxGeometry>
        </mxCell>
        <mxCell id="hUQsxeSYEGS46C2yoitD-18" value="Password" style="ellipse;whiteSpace=wrap;html=1;" vertex="1" parent="1">
          <mxGeometry x="-335" y="-760" width="120" height="80" as="geometry" />
        </mxCell>
        <mxCell id="hUQsxeSYEGS46C2yoitD-20" value="" style="endArrow=none;html=1;exitX=1;exitY=0.5;exitDx=0;exitDy=0;entryX=0;entryY=0.25;entryDx=0;entryDy=0;" edge="1" parent="1" source="hUQsxeSYEGS46C2yoitD-18" target="93AqYQxgSIACoRyakcor-9">
          <mxGeometry width="50" height="50" relative="1" as="geometry">
            <mxPoint x="325" y="-740" as="sourcePoint" />
            <mxPoint x="375" y="-790" as="targetPoint" />
          </mxGeometry>
        </mxCell>
        <mxCell id="hUQsxeSYEGS46C2yoitD-21" value="Role (int)" style="ellipse;whiteSpace=wrap;html=1;" vertex="1" parent="1">
          <mxGeometry x="-335" y="-670" width="120" height="80" as="geometry" />
        </mxCell>
        <mxCell id="hUQsxeSYEGS46C2yoitD-22" value="" style="endArrow=none;html=1;exitX=1;exitY=0.5;exitDx=0;exitDy=0;" edge="1" parent="1" source="hUQsxeSYEGS46C2yoitD-21" target="93AqYQxgSIACoRyakcor-9">
          <mxGeometry width="50" height="50" relative="1" as="geometry">
            <mxPoint x="325" y="-740" as="sourcePoint" />
            <mxPoint x="375" y="-790" as="targetPoint" />
          </mxGeometry>
        </mxCell>
      </root>
    </mxGraphModel>
  </diagram>
</mxfile>
